<svg id="Layer_1" data-name="Layer 1" xmlns="http://www.w3.org/2000/svg" xmlns:xlink="http://www.w3.org/1999/xlink" viewBox="0 0 1366 768"><defs><style>.cls-1{opacity:0.7;}.cls-2{fill:#fff;stroke:#a5a5a5;stroke-linecap:round;stroke-linejoin:round;stroke-width:2px;}.cls-3{fill:url(#linear-gradient);}</style><linearGradient id="linear-gradient" x1="682.28" y1="294.88" x2="686.8" y2="853.29" gradientUnits="userSpaceOnUse"><stop offset="0.18"/><stop offset="0.8" stop-opacity="0.43"/></linearGradient></defs><g class="cls-1"><path class="cls-2" d="M120,680v-6h-9v6" transform="translate(0)"/><path class="cls-2" d="M70,680h2.44l6.6-8H95l6.6,8H124a3,3,0,0,1,3,3v30a3,3,0,0,1-3,3H70a3,3,0,0,1-3-3V683A3,3,0,0,1,70,680Z" transform="translate(0)"/><circle class="cls-2" cx="111.04" cy="700.49" r="8"/><path class="cls-2" d="M75,690H95v18H75Z" transform="translate(0)"/><circle class="cls-2" cx="111.04" cy="700.49" r="1"/></g><rect class="cls-3" width="1366" height="768" rx="21.07"/></svg>