<svg id="Layer_1" data-name="Layer 1" xmlns="http://www.w3.org/2000/svg" xmlns:xlink="http://www.w3.org/1999/xlink" viewBox="0 0 1366 768"><defs><style>.cls-1{fill:url(#linear-gradient);}.cls-2{opacity:0.7;}.cls-3{fill:#fff;stroke:#a5a5a5;stroke-linecap:round;stroke-linejoin:round;stroke-width:2px;}</style><linearGradient id="linear-gradient" x1="680.33" y1="294.35" x2="684.85" y2="853.01" gradientUnits="userSpaceOnUse"><stop offset="0" stop-color="#fff" stop-opacity="0"/><stop offset="0.11" stop-color="#fbe8ff" stop-opacity="0.08"/><stop offset="0.26" stop-color="#f7cdff" stop-opacity="0.18"/><stop offset="0.43" stop-color="#f4b9ff" stop-opacity="0.25"/><stop offset="0.61" stop-color="#f3aeff" stop-opacity="0.29"/><stop offset="0.82" stop-color="#f2aaff" stop-opacity="0.3"/></linearGradient></defs><path class="cls-1" d="M-.5-.5h224S856,67,654.5,268.5s711,88,711,88v411H-.5Z" transform="translate(0.5 0.5)"/><g class="cls-2"><path class="cls-3" d="M120,680v-6h-9v6" transform="translate(0.5 0.5)"/><path class="cls-3" d="M70,680h2.44l6.6-8H95l6.6,8H124a3,3,0,0,1,3,3v30a3,3,0,0,1-3,3H70a3,3,0,0,1-3-3V683A3,3,0,0,1,70,680Z" transform="translate(0.5 0.5)"/><circle class="cls-3" cx="111.54" cy="700.99" r="8"/><path class="cls-3" d="M75,690H95v18H75Z" transform="translate(0.5 0.5)"/><circle class="cls-3" cx="111.54" cy="700.99" r="1"/></g></svg>